<?xml version="1.0" standalone="no"?>
<!DOCTYPE svg PUBLIC "-//W3C//DTD SVG 20010904//EN"
 "http://www.w3.org/TR/2001/REC-SVG-20010904/DTD/svg10.dtd">
<svg version="1.0" xmlns="http://www.w3.org/2000/svg"
 width="624.000000pt" height="624.000000pt" viewBox="0 0 624.000000 624.000000"
 preserveAspectRatio="xMidYMid meet">
<metadata>
Created by potrace 1.14, written by Peter Selinger 2001-2017
</metadata>
<g transform="translate(0.000000,624.000000) scale(0.100000,-0.100000)"
fill="#000000" stroke="none">
<path d="M2085 5863 c-77 -20 -108 -56 -98 -114 16 -104 138 -255 452 -563
459 -449 540 -537 601 -647 16 -30 30 -49 31 -44 0 6 2 17 4 25 30 122 34 256
10 405 -10 60 -27 130 -59 230 -23 74 -97 218 -157 305 -147 213 -327 345
-534 392 -49 11 -223 19 -250 11z"/>
<path d="M4148 5865 c-1 -1 -19 -5 -38 -8 -19 -2 -55 -10 -80 -18 -25 -7 -47
-13 -50 -14 -23 -5 -112 -52 -167 -88 -61 -40 -164 -134 -218 -198 -109 -130
-231 -392 -260 -559 -4 -19 -9 -46 -11 -60 -9 -50 -13 -97 -14 -190 -1 -89 1
-108 16 -170 3 -14 7 -33 8 -42 4 -32 12 -28 31 14 22 50 16 41 102 143 65 78
158 171 489 496 236 231 326 330 396 431 124 183 92 260 -109 264 -50 2 -93 1
-95 -1z"/>
<path d="M1386 5203 c-1 -2 -25 -5 -52 -8 -27 -3 -60 -7 -74 -10 -57 -13 -66
-15 -88 -19 -12 -3 -27 -8 -32 -11 -5 -3 -18 -8 -28 -10 -39 -7 -178 -78 -246
-125 -87 -60 -173 -141 -211 -198 -21 -31 -28 -55 -28 -89 0 -43 4 -51 42 -85
38 -33 128 -77 171 -82 8 -1 28 -6 45 -11 16 -5 39 -9 50 -10 11 -1 36 -5 55
-8 75 -15 98 -17 175 -22 44 -3 94 -7 110 -10 63 -9 272 -18 687 -29 241 -7
423 -15 483 -22 28 -3 77 -7 110 -9 128 -9 263 -32 283 -48 6 -5 12 -7 12 -3
0 3 23 -5 50 -19 l51 -26 -37 68 c-66 121 -197 272 -334 386 -68 57 -205 146
-300 195 -72 38 -230 110 -245 112 -3 0 -10 2 -17 5 -87 29 -200 57 -283 71
-5 1 -12 3 -15 4 -19 8 -327 20 -334 13z"/>
<path d="M4081 4510 c-184 -207 -235 -477 -139 -741 37 -101 91 -168 320 -396
126 -125 252 -257 279 -293 47 -62 109 -176 124 -230 4 -14 11 -29 15 -35 4
-5 11 -30 16 -55 9 -52 11 -59 14 -62 2 -3 8 -88 10 -158 6 -195 -81 -430
-215 -579 -57 -64 -110 -113 -150 -139 -22 -14 -42 -28 -45 -32 -3 -4 -43 -26
-90 -48 -77 -37 -144 -60 -225 -78 -43 -10 -296 -13 -320 -4 -11 4 -45 13 -75
20 -30 7 -59 16 -65 19 -5 4 -28 13 -50 20 -39 14 -166 86 -208 120 -12 9
-182 176 -378 371 -357 355 -406 396 -489 415 -223 51 -436 -99 -467 -330 -7
-52 -7 -53 0 -100 15 -103 28 -119 451 -540 220 -221 418 -415 438 -433 60
-52 237 -166 323 -209 128 -63 316 -126 445 -147 123 -21 358 -27 487 -13 123
13 294 58 423 110 14 6 27 11 30 12 3 0 48 23 100 50 52 27 103 53 113 57 9 4
17 12 17 18 0 5 5 10 11 10 10 0 97 59 125 85 6 5 32 28 58 49 186 154 383
437 461 661 9 28 20 57 23 65 3 8 6 18 7 23 2 4 3 8 5 10 1 1 3 9 5 17 1 8 10
42 18 75 14 56 18 75 34 173 9 52 9 378 0 427 -4 22 -10 58 -13 80 -4 22 -8
47 -10 55 -35 148 -68 245 -132 380 -29 62 -122 212 -170 274 -80 103 -4 26
-820 835 -133 133 -243 241 -245 240 -1 0 -22 -22 -46 -49z"/>
<path d="M2277 3904 c-1 -1 -39 -5 -84 -8 -46 -4 -91 -9 -100 -10 -10 -2 -38
-7 -63 -11 -65 -11 -200 -46 -240 -62 -8 -3 -20 -7 -27 -9 -7 -1 -37 -14 -68
-27 -30 -14 -55 -23 -55 -19 0 4 -4 3 -8 -3 -4 -5 -32 -23 -62 -38 -76 -39
-144 -79 -185 -109 -153 -115 -212 -169 -316 -290 -167 -194 -314 -495 -353
-722 -3 -16 -11 -55 -17 -85 -13 -62 -18 -353 -7 -447 16 -143 73 -346 134
-479 15 -33 28 -62 28 -65 1 -3 4 -9 8 -15 3 -5 18 -32 33 -60 15 -27 38 -64
51 -82 13 -17 24 -34 24 -37 0 -3 6 -14 14 -23 112 -141 170 -200 1033 -1055
l63 -62 50 49 c27 27 50 55 50 62 0 7 4 13 9 13 10 0 88 149 96 183 2 12 11
51 18 85 25 113 10 296 -30 375 -7 15 -11 27 -8 27 9 0 -52 108 -83 150 -15
19 -130 139 -257 265 -127 127 -246 252 -264 278 -118 172 -169 332 -169 527
0 85 3 119 22 209 17 81 117 301 137 301 4 0 10 8 13 18 3 9 32 45 63 78 232
245 547 337 883 258 82 -20 228 -90 300 -143 30 -23 219 -205 420 -404 359
-357 366 -363 431 -385 65 -23 150 -29 213 -17 50 10 133 56 176 97 39 38 91
110 94 132 1 6 4 16 8 21 22 35 26 165 7 225 -24 75 -69 127 -412 470 -478
478 -483 483 -638 583 -115 74 -315 166 -419 193 -65 16 -201 46 -225 49 -110
13 -163 17 -221 18 -36 1 -66 1 -67 1z"/>
</g>
</svg>
