<svg width="23" height="16" viewBox="0 0 23 16" fill="none" xmlns="http://www.w3.org/2000/svg">
<path d="M1.75362 8.71318C1.61743 8.49754 1.54934 8.38972 1.51122 8.22342C1.48259 8.0985 1.48259 7.9015 1.51122 7.77658C1.54934 7.61028 1.61743 7.50246 1.75362 7.28682C2.87903 5.50484 6.2289 1 11.3339 1C16.4389 1 19.7888 5.50484 20.9142 7.28682C21.0504 7.50246 21.1185 7.61028 21.1566 7.77658C21.1852 7.9015 21.1852 8.0985 21.1566 8.22342C21.1185 8.38972 21.0504 8.49754 20.9142 8.71318C19.7888 10.4952 16.4389 15 11.3339 15C6.2289 15 2.87903 10.4952 1.75362 8.71318Z" stroke="white" stroke-width="2" stroke-linecap="round" stroke-linejoin="round"/>
<path d="M11.3339 11C12.9908 11 14.3339 9.65685 14.3339 8C14.3339 6.34315 12.9908 5 11.3339 5C9.67705 5 8.3339 6.34315 8.3339 8C8.3339 9.65685 9.67705 11 11.3339 11Z" stroke="white" stroke-width="2" stroke-linecap="round" stroke-linejoin="round"/>
</svg>
