<svg width="16" height="16" viewBox="0 0 16 16" fill="none" xmlns="http://www.w3.org/2000/svg">
<path d="M10.5 8C10.5 8.49445 10.3534 8.9778 10.0787 9.38893C9.80397 9.80005 9.41352 10.1205 8.95671 10.3097C8.49989 10.4989 7.99723 10.5484 7.51227 10.452C7.02732 10.3555 6.58186 10.1174 6.23223 9.76777C5.8826 9.41814 5.6445 8.97268 5.54804 8.48773C5.45157 8.00277 5.50108 7.50011 5.6903 7.04329C5.87952 6.58648 6.19995 6.19603 6.61107 5.92133C7.0222 5.64662 7.50555 5.5 8 5.5C8.66241 5.50206 9.2971 5.76611 9.76549 6.23451C10.2339 6.7029 10.4979 7.33759 10.5 8ZM15.8125 4.5625V11.4375C15.8125 12.5978 15.3516 13.7106 14.5311 14.5311C13.7106 15.3516 12.5978 15.8125 11.4375 15.8125H4.5625C3.40218 15.8125 2.28938 15.3516 1.46891 14.5311C0.648436 13.7106 0.1875 12.5978 0.1875 11.4375V4.5625C0.1875 3.40218 0.648436 2.28938 1.46891 1.46891C2.28938 0.648436 3.40218 0.1875 4.5625 0.1875H11.4375C12.5978 0.1875 13.7106 0.648436 14.5311 1.46891C15.3516 2.28938 15.8125 3.40218 15.8125 4.5625ZM11.75 8C11.75 7.25832 11.5301 6.5333 11.118 5.91661C10.706 5.29993 10.1203 4.81928 9.43506 4.53545C8.74984 4.25162 7.99584 4.17736 7.26841 4.32206C6.54098 4.46675 5.8728 4.8239 5.34835 5.34835C4.8239 5.8728 4.46675 6.54098 4.32206 7.26841C4.17736 7.99584 4.25162 8.74984 4.53545 9.43506C4.81928 10.1203 5.29993 10.706 5.91661 11.118C6.5333 11.5301 7.25832 11.75 8 11.75C8.99456 11.75 9.94839 11.3549 10.6517 10.6517C11.3549 9.94839 11.75 8.99456 11.75 8ZM13 3.9375C13 3.75208 12.945 3.57082 12.842 3.41665C12.739 3.26248 12.5926 3.14232 12.4213 3.07136C12.25 3.00041 12.0615 2.98184 11.8796 3.01801C11.6977 3.05419 11.5307 3.14348 11.3996 3.27459C11.2685 3.4057 11.1792 3.57275 11.143 3.7546C11.1068 3.93646 11.1254 4.12496 11.1964 4.29627C11.2673 4.46757 11.3875 4.61399 11.5417 4.717C11.6958 4.82002 11.8771 4.875 12.0625 4.875C12.3111 4.875 12.5496 4.77623 12.7254 4.60041C12.9012 4.4246 13 4.18614 13 3.9375Z" fill="black"/>
</svg>
