<svg width="14" height="17" viewBox="0 0 14 17" fill="none" xmlns="http://www.w3.org/2000/svg">
<path fill-rule="evenodd" clip-rule="evenodd" d="M2.04999 2.05011C3.36281 0.737292 5.14338 -0.000244141 6.99999 -0.000244141C8.8566 -0.000244141 10.6372 0.737292 11.95 2.05011C13.2628 3.36293 14.0003 5.1435 14.0003 7.00011C14.0003 8.85672 13.2628 10.6373 11.95 11.9501L6.99999 16.9001L2.04999 11.9501C1.3999 11.3001 0.88422 10.5284 0.532393 9.67906C0.180565 8.82974 -0.000518799 7.91943 -0.000518799 7.00011C-0.000518799 6.0808 0.180565 5.17049 0.532393 4.32116C0.88422 3.47184 1.3999 2.70013 2.04999 2.05011ZM6.99999 9.00011C7.53042 9.00011 8.03913 8.7894 8.4142 8.41433C8.78927 8.03925 8.99999 7.53055 8.99999 7.00011C8.99999 6.46968 8.78927 5.96097 8.4142 5.5859C8.03913 5.21083 7.53042 5.00011 6.99999 5.00011C6.46955 5.00011 5.96085 5.21083 5.58577 5.5859C5.2107 5.96097 4.99999 6.46968 4.99999 7.00011C4.99999 7.53055 5.2107 8.03925 5.58577 8.41433C5.96085 8.7894 6.46955 9.00011 6.99999 9.00011Z" fill="#111928"/>
</svg>
