<svg width="20" height="20" viewBox="0 0 20 20" fill="none" xmlns="http://www.w3.org/2000/svg">
<path d="M11.2679 5.39241C9.83874 4.18533 4.24707 4.45616 4.24707 4.45616L4.04999 18.0603C4.04999 18.0603 11.4896 18.1162 13.7804 18.0603C16.0712 18.0045 17.6725 16.182 17.6971 14.7778C17.7217 13.3737 17.6971 4.70283 17.6971 4.70283C14.8396 4.35741 12.7212 4.62866 11.2679 5.39241Z" stroke="black" stroke-linecap="round" stroke-linejoin="round"/>
<path d="M8.13793 12.9784C9.74324 12.9784 11.0446 11.677 11.0446 10.0717C11.0446 8.4664 9.74324 7.16504 8.13793 7.16504C6.53262 7.16504 5.23126 8.4664 5.23126 10.0717C5.23126 11.677 6.53262 12.9784 8.13793 12.9784Z" stroke="black" stroke-linecap="round" stroke-linejoin="round"/>
<path d="M13.3513 12.2209C13.9342 12.4853 14.5939 12.5266 15.2052 12.3369C15.8166 12.1472 16.337 11.7397 16.6678 11.1917C16.9986 10.6437 17.1168 9.99338 16.9998 9.36406C16.8829 8.73473 16.539 8.17022 16.0334 7.77763C15.5279 7.38505 14.8958 7.1917 14.2571 7.23427C13.6184 7.27684 13.0176 7.55237 12.5686 8.00859C12.1196 8.46481 11.8537 9.06996 11.8213 9.70924C11.7889 10.3485 11.9923 10.9774 12.3929 11.4767M4.2471 4.45627L2.3746 5.81127L2.29169 16.4038L4.05002 18.0609M14.0396 4.62294C13.9136 3.87662 13.531 3.19772 12.9578 2.70348C12.3845 2.20923 11.6567 1.93067 10.9 1.9159C10.1432 1.90113 9.40511 2.15108 8.81303 2.62257C8.22096 3.09407 7.81211 3.75752 7.6571 4.49835" stroke="black" stroke-linecap="round" stroke-linejoin="round"/>
<path d="M14.3316 8.19238C14.4302 8.40514 14.4495 8.64611 14.386 8.87184C14.3225 9.09756 14.1805 9.29317 13.9855 9.4234C13.7905 9.55363 13.5554 9.60989 13.3226 9.58205C13.0898 9.5542 12.8746 9.44408 12.7158 9.27155C12.5725 9.61788 12.5443 10.0011 12.6354 10.3647C12.7265 10.7283 12.9321 11.053 13.2219 11.2907C13.5116 11.5285 13.8702 11.6668 14.2445 11.6853C14.6189 11.7037 14.9893 11.6013 15.301 11.3931C15.6127 11.1849 15.8492 10.882 15.9756 10.5291C16.102 10.1763 16.1116 9.79209 16.0029 9.43336C15.8943 9.07462 15.6732 8.76032 15.3722 8.53686C15.0713 8.31341 14.7065 8.19264 14.3316 8.19238ZM8.55164 8.33613C8.62912 8.5646 8.62225 8.81326 8.53229 9.03711C8.44233 9.26096 8.27522 9.44521 8.06119 9.55654C7.84716 9.66786 7.60035 9.69889 7.36542 9.64402C7.13049 9.58914 6.92297 9.45199 6.78039 9.25738C6.595 9.59508 6.52312 9.98345 6.57537 10.3651C6.62762 10.7468 6.80122 11.1016 7.07054 11.377C7.33986 11.6525 7.69062 11.8341 8.07103 11.8949C8.45144 11.9557 8.84133 11.8926 9.18313 11.7149C9.52492 11.5371 9.8005 11.2542 9.96917 10.9079C10.1378 10.5615 10.1907 10.1701 10.1198 9.79141C10.049 9.41274 9.85828 9.06688 9.57582 8.8049C9.29337 8.54293 8.93415 8.37873 8.55123 8.33655L8.55164 8.33613ZM10.1504 13.0907C10.1504 11.917 10.9966 11.4399 12.1175 11.4399C13.1154 11.4399 13.6821 12.7949 13.6821 12.7949C12.7013 13.2121 11.6435 13.4177 10.5779 13.3982C11.1922 13.9684 11.9655 14.3379 12.795 14.4578C12.795 14.4578 12.4504 14.7161 11.2679 14.7161C10.3071 14.7165 10.1504 13.6945 10.1504 13.0907Z" stroke="black" stroke-linecap="round" stroke-linejoin="round"/>
<path d="M12.6321 13.1538C12.6575 13.5746 12.6212 13.9968 12.5246 14.4071" stroke="black" stroke-linecap="round" stroke-linejoin="round"/>
</svg>
