<svg width="18" height="18" viewBox="0 0 18 18" fill="none" xmlns="http://www.w3.org/2000/svg">
<path d="M0.670001 17.3334L1.79667 13.1934C1.05428 11.9208 0.664248 10.4734 0.666668 9.00008C0.666668 4.39758 4.3975 0.666748 9 0.666748C13.6025 0.666748 17.3333 4.39758 17.3333 9.00008C17.3333 13.6026 13.6025 17.3334 9 17.3334C7.52732 17.3358 6.08055 16.9461 4.80833 16.2042L0.670001 17.3334ZM5.9925 5.09008C5.88489 5.09676 5.77973 5.12511 5.68333 5.17341C5.59294 5.22461 5.51041 5.2886 5.43833 5.36341C5.33833 5.45758 5.28167 5.53925 5.22083 5.61841C4.91284 6.01924 4.74718 6.51126 4.75 7.01675C4.75167 7.42508 4.85833 7.82258 5.025 8.19425C5.36583 8.94591 5.92667 9.74175 6.6675 10.4792C6.84583 10.6567 7.02 10.8351 7.2075 11.0009C8.12699 11.8105 9.22271 12.3943 10.4075 12.7059L10.8817 12.7784C11.0358 12.7867 11.19 12.7751 11.345 12.7676C11.5877 12.7551 11.8247 12.6893 12.0392 12.5751C12.1483 12.5189 12.2548 12.4577 12.3583 12.3917C12.3583 12.3917 12.3942 12.3684 12.4625 12.3167C12.575 12.2334 12.6442 12.1742 12.7375 12.0767C12.8067 12.0051 12.8667 11.9209 12.9125 11.8251C12.9775 11.6892 13.0425 11.4301 13.0692 11.2142C13.0892 11.0492 13.0833 10.9592 13.0808 10.9034C13.0775 10.8142 13.0033 10.7217 12.9225 10.6826L12.4375 10.4651C12.4375 10.4651 11.7125 10.1492 11.27 9.94758C11.2233 9.92724 11.1733 9.91566 11.1225 9.91341C11.0655 9.90756 11.0079 9.91397 10.9535 9.93223C10.8992 9.95048 10.8494 9.98015 10.8075 10.0192V10.0176C10.8033 10.0176 10.7475 10.0651 10.145 10.7951C10.1104 10.8415 10.0628 10.8767 10.0082 10.896C9.95355 10.9153 9.89443 10.9178 9.83833 10.9034C9.78404 10.8889 9.73085 10.8705 9.67917 10.8484C9.57583 10.8051 9.54 10.7884 9.46917 10.7576L9.465 10.7559C8.98826 10.5478 8.54685 10.2666 8.15667 9.92258C8.05167 9.83091 7.95417 9.73091 7.85417 9.63425C7.52632 9.32028 7.2406 8.96509 7.00417 8.57758L6.955 8.49841C6.91969 8.44522 6.89113 8.38783 6.87 8.32758C6.83833 8.20508 6.92083 8.10675 6.92083 8.10675C6.92083 8.10675 7.12333 7.88508 7.2175 7.76508C7.29591 7.66535 7.36906 7.5616 7.43667 7.45425C7.535 7.29592 7.56583 7.13341 7.51417 7.00758C7.28083 6.43758 7.03917 5.87008 6.79083 5.30675C6.74167 5.19508 6.59583 5.11508 6.46333 5.09925C6.41833 5.09425 6.37333 5.08925 6.32833 5.08591C6.21642 5.08035 6.10428 5.0823 5.9925 5.09008Z" fill="black"/>
</svg>
