<svg width="39" height="37" viewBox="0 0 39 37" fill="none" xmlns="http://www.w3.org/2000/svg">
<path fill-rule="evenodd" clip-rule="evenodd" d="M13.1707 30.4342L10.6621 27.9256L10.6716 27.9161C8.75896 25.7204 8.84772 22.3869 10.9378 20.2968C13.0279 18.2066 16.3615 18.1179 18.5572 20.0305L18.5667 20.021L18.8378 20.2921L18.8424 20.2968L18.8471 20.3014L22.7353 24.1896L22.7479 24.177C22.7585 24.1881 22.7692 24.199 22.7801 24.2099C23.643 25.0728 25.081 25.034 25.9918 24.1232C26.9026 23.2124 26.9414 21.7744 26.0785 20.9115C26.0533 20.8863 26.0277 20.8619 26.0016 20.8383L24.4518 19.2885L24.4519 19.2884L21.6156 16.4521L21.6155 16.4522L21.6154 16.4521L21.6135 16.454C20.6965 15.5785 19.6248 14.8799 18.4521 14.3942C17.2063 13.8781 15.8709 13.6125 14.5224 13.6125C13.1739 13.6125 11.8386 13.8781 10.5927 14.3942C9.34679 14.9102 8.21476 15.6666 7.2612 16.6202C6.30765 17.5738 5.55125 18.7058 5.03519 19.9517C4.51913 21.1975 4.25352 22.5329 4.25352 23.8814C4.25352 25.2299 4.51913 26.5653 5.03519 27.8111C5.52092 28.9838 6.21957 30.0556 7.09512 30.9726L7.09322 30.9745L7.237 31.1183L7.26121 31.1426L7.26125 31.1426L9.92948 33.8108L9.94698 33.7933L13.0044 36.8507L13.1882 36.6669C14.9141 34.9409 14.9141 32.1426 13.1882 30.4167L13.1707 30.4342Z" fill="#F79E0F"/>
<mask id="mask0_42_1257" style="mask-type:alpha" maskUnits="userSpaceOnUse" x="4" y="14" width="24" height="23">
<circle cx="16.2482" cy="25.6072" r="11.3088" fill="#D9D9D9"/>
</mask>
<g mask="url(#mask0_42_1257)">
<path fill-rule="evenodd" clip-rule="evenodd" d="M13.1707 30.4342L10.6621 27.9256L10.6715 27.9162C8.75894 25.7204 8.84769 22.3869 10.9378 20.2968C13.0279 18.2067 16.3615 18.1179 18.5572 20.0305L18.5666 20.021L18.8383 20.2927L18.8424 20.2968L18.8464 20.3008L22.7353 24.1896L22.7479 24.177C22.7585 24.1881 22.7692 24.199 22.78 24.2099C23.643 25.0729 25.0809 25.034 25.9918 24.1232C26.9026 23.2124 26.9414 21.7744 26.0784 20.9115C26.0533 20.8863 26.0276 20.8619 26.0015 20.8383L24.4517 19.2885L24.4519 19.2884L21.6156 16.4521L21.6155 16.4523L21.6154 16.4522L21.6135 16.454C20.6965 15.5785 19.6247 14.8799 18.4521 14.3942C17.2062 13.8781 15.8709 13.6125 14.5224 13.6125C13.1738 13.6125 11.8385 13.8781 10.5926 14.3942C9.34676 14.9103 8.21473 15.6667 7.26117 16.6202C6.30762 17.5738 5.55122 18.7058 5.03516 19.9517C4.5191 21.1976 4.25348 22.5329 4.25348 23.8814C4.25348 25.2299 4.5191 26.5653 5.03516 27.8111C5.52089 28.9838 6.21953 30.0556 7.09509 30.9726L7.09319 30.9745L7.23697 31.1183L7.26117 31.1426L7.26121 31.1426L9.92945 33.8108L9.94694 33.7933L13.0043 36.8507L13.1882 36.6669C14.9141 34.9409 14.9141 32.1427 13.1882 30.4167L13.1707 30.4342Z" fill="#F5BF11"/>
</g>
<path fill-rule="evenodd" clip-rule="evenodd" d="M27.882 26.0604C25.7919 28.1505 22.4584 28.2393 20.2626 26.3267L20.2532 26.3362L19.9774 26.0604L16.0846 22.1676L16.0719 22.1802C16.0614 22.1691 16.0507 22.1582 16.0398 22.1473C15.1768 21.2844 13.7389 21.3232 12.8281 22.234C11.9172 23.1448 11.8784 24.5828 12.7414 25.4457C12.7665 25.4709 12.7922 25.4953 12.8183 25.5189L14.3681 27.0687L14.368 27.0688L17.2042 29.9051L17.2043 29.905L17.2044 29.905L17.2063 29.9032C18.1233 30.7787 19.1951 31.4773 20.3677 31.963C21.6136 32.4791 22.9489 32.7447 24.2974 32.7447C25.646 32.7447 26.9813 32.4791 28.2272 31.963C29.4731 31.447 30.6051 30.6906 31.5586 29.737C32.5122 28.7834 33.2686 27.6514 33.7847 26.4055C34.3007 25.1596 34.5663 23.8243 34.5663 22.4758C34.5663 21.1273 34.3007 19.7919 33.7847 18.5461C33.2989 17.3734 32.6003 16.3016 31.7247 15.3846L31.7266 15.3827L31.5834 15.2394L31.5586 15.2146L31.5586 15.2146L28.8904 12.5464L28.8729 12.5639L25.8155 9.5065L25.6317 9.69033C23.9057 11.4163 23.9057 14.2145 25.6317 15.9405L25.6492 15.923L27.8787 18.1525L27.882 18.1558L27.8853 18.1591L28.1578 18.4316L28.1483 18.441C30.0609 20.6368 29.9721 23.9703 27.882 26.0604Z" fill="#F5BF11"/>
<mask id="mask1_42_1257" style="mask-type:alpha" maskUnits="userSpaceOnUse" x="11" y="9" width="23" height="24">
<circle cx="22.5716" cy="20.75" r="11.3088" transform="rotate(180 22.5716 20.75)" fill="#D9D9D9"/>
</mask>
<g mask="url(#mask1_42_1257)">
<path fill-rule="evenodd" clip-rule="evenodd" d="M25.6492 15.923L28.1578 18.4316L28.1483 18.4411C30.0609 20.6368 29.9722 23.9703 27.8821 26.0604C25.792 28.1505 22.4584 28.2393 20.2627 26.3267L20.2532 26.3362L19.9848 26.0678L19.9775 26.0604L19.9701 26.0531L16.0846 22.1676L16.072 22.1802C16.0614 22.1691 16.0507 22.1582 16.0398 22.1473C15.1769 21.2844 13.7389 21.3232 12.8281 22.234C11.9173 23.1448 11.8784 24.5828 12.7414 25.4457C12.7666 25.4709 12.7922 25.4953 12.8184 25.5189L14.3681 27.0687L14.368 27.0688L17.2043 29.9051L17.2044 29.905L17.2045 29.9051L17.2063 29.9032C18.1234 30.7787 19.1951 31.4773 20.3677 31.963C21.6136 32.4791 22.9489 32.7447 24.2975 32.7447C25.646 32.7447 26.9813 32.4791 28.2272 31.963C29.4731 31.447 30.6051 30.6906 31.5587 29.737C32.5122 28.7834 33.2686 27.6514 33.7847 26.4055C34.3008 25.1597 34.5664 23.8243 34.5664 22.4758C34.5664 21.1273 34.3008 19.7919 33.7847 18.5461C33.299 17.3734 32.6003 16.3016 31.7248 15.3846L31.7267 15.3827L31.5832 15.2392L31.5587 15.2146L31.5586 15.2146L28.8904 12.5464L28.8729 12.5639L25.8155 9.5065L25.6317 9.69033C23.9058 11.4163 23.9058 14.2145 25.6317 15.9405L25.6492 15.923Z" fill="#F79E0F"/>
</g>
<path d="M18.5794 11.1612C18.543 11.0642 18.5034 10.9676 18.4607 10.8713C16.8414 9.06675 -0.71277 11.4564 5.06084 6.87161C9.37754 3.44378 16.6698 6.83585 18.4607 10.8713C18.5384 10.9578 18.5794 11.0541 18.5794 11.1612Z" fill="#9AC935"/>
<path d="M19.0611 10.2512C19.0892 10.1811 19.1154 10.1096 19.1398 10.0367C19.1565 8.27177 8.55734 0.98058 13.909 1.32932C17.9102 1.59006 20.1599 6.98438 19.1398 10.0367C19.139 10.1214 19.1137 10.1934 19.0611 10.2512Z" fill="#9AC935"/>
<path d="M20.9981 10.2512C20.97 10.1811 20.9438 10.1096 20.9195 10.0367C20.9027 8.27177 31.5019 0.98058 26.1502 1.32932C22.149 1.59006 19.8993 6.98438 20.9195 10.0367C20.9203 10.1214 20.9455 10.1934 20.9981 10.2512Z" fill="#9AC935"/>
</svg>
