<svg width="200" height="37" viewBox="0 0 200 37" fill="none" xmlns="http://www.w3.org/2000/svg">
<path fill-rule="evenodd" clip-rule="evenodd" d="M13.1707 30.4342L10.6621 27.9256L10.6716 27.9161C8.75896 25.7204 8.84772 22.3869 10.9378 20.2968C13.0279 18.2066 16.3615 18.1179 18.5572 20.0305L18.5667 20.021L18.8378 20.2921L18.8424 20.2968L18.8471 20.3014L22.7353 24.1896L22.7479 24.177C22.7585 24.1881 22.7692 24.199 22.7801 24.2099C23.643 25.0728 25.081 25.034 25.9918 24.1232C26.9026 23.2124 26.9414 21.7744 26.0785 20.9115C26.0533 20.8863 26.0277 20.8619 26.0016 20.8383L24.4518 19.2885L24.4519 19.2884L21.6156 16.4521L21.6155 16.4522L21.6154 16.4521L21.6135 16.454C20.6965 15.5785 19.6248 14.8799 18.4521 14.3942C17.2063 13.8781 15.8709 13.6125 14.5224 13.6125C13.1739 13.6125 11.8386 13.8781 10.5927 14.3942C9.34679 14.9102 8.21476 15.6666 7.2612 16.6202C6.30765 17.5738 5.55125 18.7058 5.03519 19.9517C4.51913 21.1975 4.25352 22.5329 4.25352 23.8814C4.25352 25.2299 4.51913 26.5653 5.03519 27.8111C5.52092 28.9838 6.21957 30.0556 7.09512 30.9726L7.09322 30.9745L7.237 31.1183L7.26121 31.1426L7.26125 31.1426L9.92948 33.8108L9.94698 33.7933L13.0044 36.8507L13.1882 36.6669C14.9141 34.9409 14.9141 32.1426 13.1882 30.4167L13.1707 30.4342Z" fill="#F79E0F"/>
<mask id="mask0_4_10983" style="mask-type:alpha" maskUnits="userSpaceOnUse" x="4" y="14" width="24" height="23">
<circle cx="16.2482" cy="25.6072" r="11.3088" fill="#D9D9D9"/>
</mask>
<g mask="url(#mask0_4_10983)">
<path fill-rule="evenodd" clip-rule="evenodd" d="M13.1707 30.4342L10.6621 27.9256L10.6715 27.9162C8.75894 25.7204 8.84769 22.3869 10.9378 20.2968C13.0279 18.2067 16.3615 18.1179 18.5572 20.0305L18.5666 20.021L18.8383 20.2927L18.8424 20.2968L18.8464 20.3008L22.7353 24.1896L22.7479 24.177C22.7585 24.1881 22.7692 24.199 22.78 24.2099C23.643 25.0729 25.0809 25.034 25.9918 24.1232C26.9026 23.2124 26.9414 21.7744 26.0784 20.9115C26.0533 20.8863 26.0276 20.8619 26.0015 20.8383L24.4517 19.2885L24.4519 19.2884L21.6156 16.4521L21.6155 16.4523L21.6154 16.4522L21.6135 16.454C20.6965 15.5785 19.6247 14.8799 18.4521 14.3942C17.2062 13.8781 15.8709 13.6125 14.5224 13.6125C13.1738 13.6125 11.8385 13.8781 10.5926 14.3942C9.34676 14.9103 8.21473 15.6667 7.26117 16.6202C6.30762 17.5738 5.55122 18.7058 5.03516 19.9517C4.5191 21.1976 4.25348 22.5329 4.25348 23.8814C4.25348 25.2299 4.5191 26.5653 5.03516 27.8111C5.52089 28.9838 6.21953 30.0556 7.09509 30.9726L7.09319 30.9745L7.23697 31.1183L7.26117 31.1426L7.26121 31.1426L9.92945 33.8108L9.94694 33.7933L13.0043 36.8507L13.1882 36.6669C14.9141 34.9409 14.9141 32.1427 13.1882 30.4167L13.1707 30.4342Z" fill="#F5BF11"/>
</g>
<path fill-rule="evenodd" clip-rule="evenodd" d="M27.882 26.0604C25.7919 28.1505 22.4584 28.2393 20.2626 26.3267L20.2532 26.3362L19.9774 26.0604L16.0846 22.1676L16.0719 22.1802C16.0614 22.1691 16.0507 22.1582 16.0398 22.1473C15.1768 21.2844 13.7389 21.3232 12.8281 22.234C11.9172 23.1448 11.8784 24.5828 12.7414 25.4457C12.7665 25.4709 12.7922 25.4953 12.8183 25.5189L14.3681 27.0687L14.368 27.0688L17.2042 29.9051L17.2043 29.905L17.2044 29.905L17.2063 29.9032C18.1233 30.7787 19.1951 31.4773 20.3677 31.963C21.6136 32.4791 22.9489 32.7447 24.2974 32.7447C25.646 32.7447 26.9813 32.4791 28.2272 31.963C29.4731 31.447 30.6051 30.6906 31.5586 29.737C32.5122 28.7834 33.2686 27.6514 33.7847 26.4055C34.3007 25.1596 34.5663 23.8243 34.5663 22.4758C34.5663 21.1273 34.3007 19.7919 33.7847 18.5461C33.2989 17.3734 32.6003 16.3016 31.7247 15.3846L31.7266 15.3827L31.5834 15.2394L31.5586 15.2146L31.5586 15.2146L28.8904 12.5464L28.8729 12.5639L25.8155 9.5065L25.6317 9.69033C23.9057 11.4163 23.9057 14.2145 25.6317 15.9405L25.6492 15.923L27.8787 18.1525L27.882 18.1558L27.8853 18.1591L28.1578 18.4316L28.1483 18.441C30.0609 20.6368 29.9721 23.9703 27.882 26.0604Z" fill="#F5BF11"/>
<mask id="mask1_4_10983" style="mask-type:alpha" maskUnits="userSpaceOnUse" x="11" y="9" width="23" height="24">
<circle cx="22.5716" cy="20.75" r="11.3088" transform="rotate(180 22.5716 20.75)" fill="#D9D9D9"/>
</mask>
<g mask="url(#mask1_4_10983)">
<path fill-rule="evenodd" clip-rule="evenodd" d="M25.6492 15.923L28.1578 18.4316L28.1483 18.4411C30.0609 20.6368 29.9722 23.9703 27.8821 26.0604C25.792 28.1505 22.4584 28.2393 20.2627 26.3267L20.2532 26.3362L19.9848 26.0678L19.9775 26.0604L19.9701 26.0531L16.0846 22.1676L16.072 22.1802C16.0614 22.1691 16.0507 22.1582 16.0398 22.1473C15.1769 21.2844 13.7389 21.3232 12.8281 22.234C11.9173 23.1448 11.8784 24.5828 12.7414 25.4457C12.7666 25.4709 12.7922 25.4953 12.8184 25.5189L14.3681 27.0687L14.368 27.0688L17.2043 29.9051L17.2044 29.905L17.2045 29.9051L17.2063 29.9032C18.1234 30.7787 19.1951 31.4773 20.3677 31.963C21.6136 32.4791 22.9489 32.7447 24.2975 32.7447C25.646 32.7447 26.9813 32.4791 28.2272 31.963C29.4731 31.447 30.6051 30.6906 31.5587 29.737C32.5122 28.7834 33.2686 27.6514 33.7847 26.4055C34.3008 25.1597 34.5664 23.8243 34.5664 22.4758C34.5664 21.1273 34.3008 19.7919 33.7847 18.5461C33.299 17.3734 32.6003 16.3016 31.7248 15.3846L31.7267 15.3827L31.5832 15.2392L31.5587 15.2146L31.5586 15.2146L28.8904 12.5464L28.8729 12.5639L25.8155 9.5065L25.6317 9.69033C23.9058 11.4163 23.9058 14.2145 25.6317 15.9405L25.6492 15.923Z" fill="#F79E0F"/>
</g>
<path d="M18.5794 11.1612C18.543 11.0642 18.5034 10.9676 18.4607 10.8713C16.8414 9.06675 -0.71277 11.4564 5.06084 6.87161C9.37754 3.44378 16.6698 6.83585 18.4607 10.8713C18.5384 10.9578 18.5794 11.0541 18.5794 11.1612Z" fill="#9AC935"/>
<path d="M19.0611 10.2512C19.0892 10.1811 19.1154 10.1096 19.1398 10.0367C19.1565 8.27177 8.55734 0.98058 13.909 1.32932C17.9102 1.59006 20.1599 6.98438 19.1398 10.0367C19.139 10.1214 19.1137 10.1934 19.0611 10.2512Z" fill="#9AC935"/>
<path d="M20.9981 10.2512C20.97 10.1811 20.9438 10.1096 20.9195 10.0367C20.9027 8.27177 31.5019 0.98058 26.1502 1.32932C22.149 1.59006 19.8993 6.98438 20.9195 10.0367C20.9203 10.1214 20.9455 10.1934 20.9981 10.2512Z" fill="#9AC935"/>
<path d="M46.392 28.24C45.128 28.24 43.992 27.952 42.984 27.376C41.992 26.8 41.208 26.016 40.632 25.024C40.056 24.016 39.768 22.872 39.768 21.592C39.768 20.312 40.056 19.176 40.632 18.184C41.208 17.176 41.992 16.384 42.984 15.808C43.992 15.232 45.128 14.944 46.392 14.944C47.544 14.944 48.6 15.128 49.56 15.496C50.536 15.864 51.312 16.392 51.888 17.08L49.464 19.96C49.288 19.736 49.064 19.536 48.792 19.36C48.52 19.168 48.216 19.024 47.88 18.928C47.56 18.816 47.2 18.76 46.8 18.76C46.272 18.76 45.808 18.88 45.408 19.12C45.008 19.36 44.696 19.696 44.472 20.128C44.264 20.544 44.16 21.024 44.16 21.568C44.16 22.112 44.264 22.592 44.472 23.008C44.68 23.424 44.984 23.76 45.384 24.016C45.8 24.272 46.272 24.4 46.8 24.4C47.2 24.4 47.56 24.352 47.88 24.256C48.216 24.16 48.512 24.024 48.768 23.848C49.04 23.672 49.272 23.464 49.464 23.224L51.888 26.128C51.296 26.8 50.512 27.32 49.536 27.688C48.576 28.056 47.528 28.24 46.392 28.24ZM54.3553 28V10.24H58.7233V17.8L57.8113 18.088C57.9713 17.48 58.2833 16.944 58.7473 16.48C59.2113 16 59.7633 15.624 60.4033 15.352C61.0433 15.08 61.7153 14.944 62.4193 14.944C63.3793 14.944 64.1873 15.144 64.8433 15.544C65.5153 15.928 66.0193 16.512 66.3553 17.296C66.7073 18.064 66.8833 19.008 66.8833 20.128V28H62.4193V20.488C62.4193 20.072 62.3553 19.728 62.2273 19.456C62.0993 19.168 61.9073 18.952 61.6513 18.808C61.3953 18.664 61.0913 18.6 60.7393 18.616C60.4673 18.616 60.2113 18.656 59.9713 18.736C59.7473 18.816 59.5473 18.944 59.3713 19.12C59.1953 19.28 59.0593 19.464 58.9633 19.672C58.8833 19.88 58.8433 20.112 58.8433 20.368V28H56.6113C56.0673 28 55.6033 28 55.2193 28C54.8513 28 54.5633 28 54.3553 28ZM70.659 28V15.208H75.123V28H70.659ZM72.891 12.784C72.075 12.784 71.443 12.6 70.995 12.232C70.547 11.848 70.323 11.312 70.323 10.624C70.323 9.984 70.547 9.464 70.995 9.064C71.459 8.648 72.091 8.44 72.891 8.44C73.691 8.44 74.315 8.632 74.763 9.016C75.227 9.384 75.459 9.92 75.459 10.624C75.459 11.264 75.227 11.784 74.763 12.184C74.299 12.584 73.675 12.784 72.891 12.784ZM79.9444 28V11.968H84.4084V28H79.9444ZM77.8324 19V15.208H86.6404V19H77.8324ZM94.9057 28.24C93.6417 28.24 92.5057 27.952 91.4977 27.376C90.5057 26.8 89.7217 26.016 89.1457 25.024C88.5697 24.016 88.2817 22.872 88.2817 21.592C88.2817 20.312 88.5697 19.176 89.1457 18.184C89.7217 17.176 90.5057 16.384 91.4977 15.808C92.5057 15.232 93.6417 14.944 94.9057 14.944C96.0577 14.944 97.1137 15.128 98.0737 15.496C99.0497 15.864 99.8257 16.392 100.402 17.08L97.9777 19.96C97.8017 19.736 97.5777 19.536 97.3057 19.36C97.0337 19.168 96.7297 19.024 96.3937 18.928C96.0737 18.816 95.7137 18.76 95.3137 18.76C94.7857 18.76 94.3217 18.88 93.9217 19.12C93.5217 19.36 93.2097 19.696 92.9857 20.128C92.7777 20.544 92.6737 21.024 92.6737 21.568C92.6737 22.112 92.7777 22.592 92.9857 23.008C93.1937 23.424 93.4977 23.76 93.8977 24.016C94.3137 24.272 94.7857 24.4 95.3137 24.4C95.7137 24.4 96.0737 24.352 96.3937 24.256C96.7297 24.16 97.0257 24.024 97.2817 23.848C97.5537 23.672 97.7857 23.464 97.9777 23.224L100.402 26.128C99.8097 26.8 99.0257 27.32 98.0497 27.688C97.0897 28.056 96.0417 28.24 94.9057 28.24ZM102.869 28V10.24H107.237V17.8L106.325 18.088C106.485 17.48 106.797 16.944 107.261 16.48C107.725 16 108.277 15.624 108.917 15.352C109.557 15.08 110.229 14.944 110.933 14.944C111.893 14.944 112.701 15.144 113.357 15.544C114.029 15.928 114.533 16.512 114.869 17.296C115.221 18.064 115.397 19.008 115.397 20.128V28H110.933V20.488C110.933 20.072 110.869 19.728 110.741 19.456C110.613 19.168 110.421 18.952 110.165 18.808C109.909 18.664 109.605 18.6 109.253 18.616C108.981 18.616 108.725 18.656 108.485 18.736C108.261 18.816 108.061 18.944 107.885 19.12C107.709 19.28 107.573 19.464 107.477 19.672C107.397 19.88 107.357 20.112 107.357 20.368V28H105.125C104.581 28 104.117 28 103.733 28C103.365 28 103.077 28 102.869 28ZM123.661 28.216C122.605 28.216 121.653 27.936 120.805 27.376C119.973 26.8 119.309 26.016 118.813 25.024C118.333 24.016 118.093 22.872 118.093 21.592C118.093 20.28 118.333 19.128 118.813 18.136C119.293 17.144 119.957 16.368 120.805 15.808C121.653 15.232 122.629 14.944 123.733 14.944C124.325 14.944 124.869 15.024 125.365 15.184C125.861 15.344 126.293 15.576 126.661 15.88C127.029 16.184 127.349 16.528 127.621 16.912C127.893 17.296 128.117 17.712 128.293 18.16L127.381 18.112V15.208H131.773V28H127.285V24.88L128.269 24.928C128.125 25.392 127.909 25.824 127.621 26.224C127.349 26.624 127.013 26.976 126.613 27.28C126.213 27.568 125.765 27.8 125.269 27.976C124.789 28.136 124.253 28.216 123.661 28.216ZM124.933 24.544C125.445 24.544 125.885 24.432 126.253 24.208C126.621 23.968 126.901 23.624 127.093 23.176C127.301 22.728 127.405 22.2 127.405 21.592C127.405 20.968 127.301 20.432 127.093 19.984C126.901 19.536 126.621 19.2 126.253 18.976C125.885 18.736 125.445 18.616 124.933 18.616C124.421 18.616 123.981 18.736 123.613 18.976C123.261 19.2 122.989 19.536 122.797 19.984C122.605 20.432 122.509 20.968 122.509 21.592C122.509 22.2 122.605 22.728 122.797 23.176C122.989 23.624 123.261 23.968 123.613 24.208C123.981 24.432 124.421 24.544 124.933 24.544ZM136.45 28V11.968H140.914V28H136.45ZM134.338 19V15.208H143.146V19H134.338ZM145.759 28V14.92C145.759 14.04 145.951 13.24 146.335 12.52C146.719 11.8 147.255 11.224 147.943 10.792C148.631 10.36 149.431 10.144 150.343 10.144C150.983 10.144 151.567 10.232 152.095 10.408C152.639 10.584 153.143 10.832 153.607 11.152L152.407 14.344C152.199 14.28 152.007 14.232 151.831 14.2C151.655 14.152 151.503 14.128 151.375 14.128C151.103 14.128 150.879 14.176 150.703 14.272C150.543 14.368 150.423 14.512 150.343 14.704C150.279 14.896 150.247 15.128 150.247 15.4V28H148.015C147.471 28 147.007 28 146.623 28C146.255 28 145.967 28 145.759 28ZM143.959 19.192V15.616H152.695V19.192H143.959ZM155.109 28V15.208H159.285L159.525 19.408L158.589 18.688C158.797 17.984 159.117 17.352 159.549 16.792C159.997 16.216 160.533 15.768 161.157 15.448C161.781 15.112 162.437 14.944 163.125 14.944C163.413 14.944 163.685 14.968 163.941 15.016C164.197 15.048 164.437 15.096 164.661 15.16L163.437 20.104C163.261 19.992 163.013 19.896 162.693 19.816C162.373 19.72 162.029 19.672 161.661 19.672C161.341 19.672 161.053 19.728 160.797 19.84C160.541 19.936 160.325 20.08 160.149 20.272C159.973 20.464 159.837 20.696 159.741 20.968C159.645 21.224 159.597 21.528 159.597 21.88V28H155.109ZM171.37 28.264C170.41 28.264 169.594 28.064 168.922 27.664C168.25 27.248 167.738 26.656 167.386 25.888C167.034 25.12 166.858 24.192 166.858 23.104V15.208H171.322V22.648C171.322 23.064 171.394 23.416 171.538 23.704C171.682 23.992 171.882 24.216 172.138 24.376C172.394 24.52 172.706 24.592 173.074 24.592C173.362 24.592 173.618 24.552 173.842 24.472C174.082 24.392 174.282 24.272 174.442 24.112C174.602 23.936 174.73 23.744 174.826 23.536C174.922 23.312 174.97 23.072 174.97 22.816V15.208H179.434V28H175.306L175.066 25.408L175.906 25.12C175.73 25.712 175.418 26.248 174.97 26.728C174.522 27.208 173.986 27.584 173.362 27.856C172.738 28.128 172.074 28.264 171.37 28.264ZM183.471 28V15.208H187.935V28H183.471ZM185.703 12.784C184.887 12.784 184.255 12.6 183.807 12.232C183.359 11.848 183.135 11.312 183.135 10.624C183.135 9.984 183.359 9.464 183.807 9.064C184.271 8.648 184.903 8.44 185.703 8.44C186.503 8.44 187.127 8.632 187.575 9.016C188.039 9.384 188.271 9.92 188.271 10.624C188.271 11.264 188.039 11.784 187.575 12.184C187.111 12.584 186.487 12.784 185.703 12.784ZM192.757 28V11.968H197.221V28H192.757ZM190.645 19V15.208H199.453V19H190.645Z" fill="#F79E0F"/>
</svg>
