<svg width="96" height="96" viewBox="0 0 96 96" fill="none" xmlns="http://www.w3.org/2000/svg">
<g clip-path="url(#clip0_8_4521)">
<g filter="url(#filter0_d_8_4521)">
<mask id="path-1-outside-1_8_4521" maskUnits="userSpaceOnUse" x="7.14288" y="8.14285" width="81" height="81" fill="black">
<rect fill="white" x="7.14288" y="8.14285" width="81" height="81"/>
<path d="M9.46678 47.6498C9.46489 54.4359 11.246 61.062 14.6328 66.9024L9.14288 86.8571L29.656 81.5026C35.3296 84.5775 41.6865 86.1887 48.1464 86.1891H48.1634C69.4887 86.1891 86.848 68.9138 86.8572 47.6802C86.8613 37.391 82.8399 27.7158 75.5337 20.4366C68.2287 13.1581 58.5133 9.14755 48.1618 9.14285C26.834 9.14285 9.4759 26.4172 9.4671 47.6498"/>
</mask>
<path d="M9.46678 47.6498C9.46489 54.4359 11.246 61.062 14.6328 66.9024L9.14288 86.8571L29.656 81.5026C35.3296 84.5775 41.6865 86.1887 48.1464 86.1891H48.1634C69.4887 86.1891 86.848 68.9138 86.8572 47.6802C86.8613 37.391 82.8399 27.7158 75.5337 20.4366C68.2287 13.1581 58.5133 9.14755 48.1618 9.14285C26.834 9.14285 9.4759 26.4172 9.4671 47.6498" fill="url(#paint0_linear_8_4521)"/>
<path d="M14.6328 66.9024L15.597 67.1677L15.7082 66.7634L15.4979 66.4007L14.6328 66.9024ZM9.14288 86.8571L8.17871 86.5919L7.71915 88.2623L9.39545 87.8247L9.14288 86.8571ZM29.656 81.5026L30.1324 80.6235L29.7854 80.4354L29.4034 80.5351L29.656 81.5026ZM48.1464 86.1891L48.1463 87.1891H48.1464V86.1891ZM86.8572 47.6802L87.8572 47.6806V47.6806L86.8572 47.6802ZM75.5337 20.4366L74.8278 21.145L74.8279 21.145L75.5337 20.4366ZM48.1618 9.14285L48.1623 8.14285H48.1618V9.14285ZM8.46678 47.6496C8.46484 54.6115 10.2923 61.4108 13.7677 67.404L15.4979 66.4007C12.1998 60.7133 10.4649 54.2604 10.4668 47.6501L8.46678 47.6496ZM13.6686 66.6371L8.17871 86.5919L10.1071 87.1224L15.597 67.1677L13.6686 66.6371ZM9.39545 87.8247L29.9085 82.4702L29.4034 80.5351L8.89032 85.8896L9.39545 87.8247ZM29.1795 82.3818C34.9996 85.5361 41.5202 87.1887 48.1463 87.1891L48.1465 85.1891C41.8528 85.1887 35.6596 83.619 30.1324 80.6235L29.1795 82.3818ZM48.1464 87.1891H48.1634V85.1891H48.1464V87.1891ZM48.1634 87.1891C70.0367 87.1891 87.8478 69.4704 87.8572 47.6806L85.8572 47.6798C85.8483 68.3571 68.9407 85.1891 48.1634 85.1891V87.1891ZM87.8572 47.6806C87.8614 37.1247 83.7336 27.1946 76.2394 19.7282L74.8279 21.145C81.9462 28.2369 85.8612 37.6573 85.8572 47.6798L87.8572 47.6806ZM76.2395 19.7282C68.7465 12.2624 58.7773 8.14767 48.1623 8.14285L48.1614 10.1429C58.2494 10.1474 67.7108 14.0538 74.8278 21.145L76.2395 19.7282ZM48.1618 8.14285C26.286 8.14285 8.47613 25.8605 8.4671 47.6494L10.4671 47.6503C10.4757 26.9739 27.3819 10.1429 48.1618 10.1429V8.14285Z" fill="#EBF0F4" mask="url(#path-1-outside-1_8_4521)"/>
</g>
<path d="M9.4677 47.6502C9.46558 54.4371 11.2466 61.0626 14.6327 66.9026L9.14288 86.8571L29.6555 81.5028C35.3074 84.5706 41.6709 86.188 48.146 86.1904H48.1627C69.488 86.1904 86.8481 68.9133 86.8572 47.681C86.8608 37.3911 82.8391 27.715 75.534 20.4361C68.2279 13.1581 58.5136 9.14708 48.1627 9.14285C26.8338 9.14285 9.4762 26.4176 9.4677 47.6502ZM21.6834 65.8969L20.9175 64.6865C17.6978 59.5899 15.9984 53.7003 16.0009 47.6526C16.0078 30.0046 30.4348 15.6466 48.1749 15.6466C56.766 15.6502 64.8397 18.9843 70.9124 25.0334C76.9847 31.0832 80.3261 39.1252 80.324 47.6786C80.3161 65.3266 65.8889 79.6864 48.1627 79.6864H48.15C42.3782 79.6834 36.7175 78.1403 31.7808 75.2242L30.606 74.5306L18.4334 77.7078L21.6834 65.8966V65.8969Z" fill="url(#paint1_linear_8_4521)"/>
<path d="M38.6376 32.1043C37.9354 30.5562 37.1964 30.525 36.5287 30.4978C35.9819 30.4745 35.3568 30.4762 34.7323 30.4762C34.1072 30.4762 33.0916 30.7095 32.2332 31.6393C31.3738 32.57 28.9524 34.819 28.9524 39.3933C28.9524 43.9679 32.3112 48.3887 32.7794 49.0096C33.2482 49.6294 39.2635 59.3169 48.7904 63.0437C56.708 66.1408 58.3193 65.5248 60.0377 65.3695C61.7564 65.2148 65.5833 63.1211 66.3641 60.95C67.1454 58.7791 67.1454 56.9184 66.9112 56.5295C66.6769 56.1421 66.0518 55.9094 65.1145 55.4447C64.1769 54.9796 59.5689 52.7303 58.7098 52.42C57.8505 52.1099 57.2257 51.9552 56.6006 52.8862C55.9756 53.8157 54.1807 55.9094 53.6336 56.5295C53.0871 57.151 52.54 57.2284 51.6029 56.7633C50.665 56.2968 47.6465 55.3162 44.0652 52.149C41.2789 49.6845 39.3977 46.6411 38.8509 45.7102C38.3041 44.7807 38.7924 44.2768 39.2624 43.8135C39.6835 43.3969 40.2 42.7278 40.6691 42.1851C41.1364 41.6421 41.2924 41.2547 41.6049 40.6346C41.9178 40.014 41.7612 39.471 41.5272 39.0059C41.2924 38.5409 39.471 33.9426 38.6376 32.1043Z" fill="white"/>
</g>
<defs>
<filter id="filter0_d_8_4521" x="3.71918" y="8.14285" width="88.138" height="88.1194" filterUnits="userSpaceOnUse" color-interpolation-filters="sRGB">
<feFlood flood-opacity="0" result="BackgroundImageFix"/>
<feColorMatrix in="SourceAlpha" type="matrix" values="0 0 0 0 0 0 0 0 0 0 0 0 0 0 0 0 0 0 127 0" result="hardAlpha"/>
<feOffset dy="4"/>
<feGaussianBlur stdDeviation="2"/>
<feComposite in2="hardAlpha" operator="out"/>
<feColorMatrix type="matrix" values="0 0 0 0 0 0 0 0 0 0 0 0 0 0 0 0 0 0 0.25 0"/>
<feBlend mode="normal" in2="BackgroundImageFix" result="effect1_dropShadow_8_4521"/>
<feBlend mode="normal" in="SourceGraphic" in2="effect1_dropShadow_8_4521" result="shape"/>
</filter>
<linearGradient id="paint0_linear_8_4521" x1="3894.86" y1="7780.57" x2="3894.86" y2="9.14285" gradientUnits="userSpaceOnUse">
<stop stop-color="#1FAF38"/>
<stop offset="1" stop-color="#60D669"/>
</linearGradient>
<linearGradient id="paint1_linear_8_4521" x1="3894.86" y1="7780.57" x2="3894.86" y2="9.14285" gradientUnits="userSpaceOnUse">
<stop stop-color="#F9F9F9"/>
<stop offset="1" stop-color="white"/>
</linearGradient>
<clipPath id="clip0_8_4521">
<rect width="96" height="96" fill="white"/>
</clipPath>
</defs>
</svg>
